<svg width="18" height="19" viewBox="0 0 18 19" fill="none" xmlns="http://www.w3.org/2000/svg">
<path d="M18 3.13037H15.6522V7.04341H18V3.13037Z" fill="#8484A9"/>
<path d="M18 8.60864H15.6522V12.5217H18V8.60864Z" fill="#8484A9"/>
<path d="M12.5217 0H0V18.7826H12.5217C13.8162 18.7826 14.8696 17.7292 14.8696 16.4348V2.34783C14.8696 1.05339 13.8162 0 12.5217 0ZM7.43478 4.69565C8.51556 4.69565 9.3913 5.57139 9.3913 6.65217C9.3913 7.73296 8.51556 8.6087 7.43478 8.6087C6.354 8.6087 5.47826 7.73296 5.47826 6.65217C5.47826 5.57139 6.354 4.69565 7.43478 4.69565ZM10.9565 13.3043H3.91304V12.0357C3.91304 11.3384 4.37087 10.7288 5.04 10.5316C5.66217 10.3477 6.498 10.1739 7.43478 10.1739C8.37156 10.1739 9.20739 10.3477 9.82956 10.5316C10.4987 10.7288 10.9565 11.3384 10.9565 12.0357V13.3043Z" fill="#8484A9"/>
</svg>
