<svg width="21" height="19" viewBox="0 0 21 19" fill="none" xmlns="http://www.w3.org/2000/svg">
<path fill-rule="evenodd" clip-rule="evenodd" d="M2.05746 6.09542L1.0474 6.67719C0.711747 6.87053 0.284153 6.75298 0.0923485 6.41465C-0.0994562 6.07632 0.0171601 5.64532 0.352818 5.45198L9.22659 0.340866C10.0157 -0.113622 10.9843 -0.113622 11.7734 0.340866L20.6472 5.45198C20.9828 5.64532 21.0995 6.07632 20.9076 6.41465C20.7158 6.75298 20.2883 6.87053 19.9526 6.67719L18.9425 6.09542L17.5935 15.9542C17.3546 17.6998 15.8745 19 14.1263 19H6.87368C5.1255 19 3.64541 17.6998 3.40654 15.9542L2.05746 6.09542ZM10.5001 12.6499C12.1754 12.6499 13.5334 11.281 13.5334 9.5924C13.5334 7.90381 12.1754 6.53494 10.5001 6.53494C8.82486 6.53494 7.46681 7.90381 7.46681 9.5924C7.46681 11.281 8.82486 12.6499 10.5001 12.6499Z" fill="#8484A9"/>
</svg>
