<svg width="22" height="22" viewBox="0 0 22 22" fill="none" xmlns="http://www.w3.org/2000/svg">
<path fill-rule="evenodd" clip-rule="evenodd" d="M15.8161 6.7837C15.8161 9.51769 13.6609 11.734 11.0024 11.734C8.34387 11.734 6.1887 9.51769 6.1887 6.7837C6.1887 4.04971 8.34387 1.83337 11.0024 1.83337C13.6609 1.83337 15.8161 4.04971 15.8161 6.7837ZM15.1341 14.5232C16.6647 14.8331 17.6639 15.3387 18.0921 16.1543C18.4137 16.7907 18.4137 17.5485 18.0921 18.1849C17.6639 19.0005 16.7043 19.5387 15.1182 19.816C14.4115 19.9585 13.6961 20.0512 12.9771 20.0933C12.3109 20.1667 11.6448 20.1667 10.9707 20.1667H9.75735C9.50358 20.1341 9.25774 20.1178 9.01983 20.1178C8.30076 20.0808 7.5852 19.9909 6.87864 19.8486C5.34809 19.5551 4.34887 19.0331 3.92063 18.2176C3.75532 17.9017 3.66817 17.5487 3.66686 17.19C3.66342 16.829 3.74794 16.473 3.9127 16.1543C4.33301 15.3387 5.33223 14.8086 6.87864 14.5232C7.58832 14.3839 8.30632 14.294 9.02776 14.254C10.3475 14.1477 11.6732 14.1477 12.9929 14.254C13.7116 14.2959 14.4268 14.3858 15.1341 14.5232Z" fill="#8484A9"/>
</svg>
